# xmcd
#
# Track frame offsets: 
#        150
#        9663
#        20786
#        32225
#        44156
#        55181
#        68846
#        82941
#        97889
#        109052
#        119983
#        129597
#        141491
#        155734
#        172202
#        183016
#        196207
#        207359
#        225734
#        238520
#
# Disc length: 4302 seconds
#
# Revision: 2
# Processed by: cddbd v1.5.2PL0 Copyright (c) Steve Scherf et al.
# Submitted via: ExactAudioCopy v0.99pb4
#
DISCID=2610cc14
DTITLE=Various Artist - It Came From Memphis [CD1]
DYEAR=2005
DGENRE=Rythm and Blues
TTITLE0=Mose Vinson - Same Thing On My Mind
TTITLE1=Rosco Gordon - T Model Boogie
TTITLE2=Billy Riley and The Little Green Men - Red Hot
TTITLE3=The Mar-Keys - Last Night
TTITLE4=Alex Chilton - Hook Or Crook
TTITLE5=The Jon Spencer Blues Explosion - Chicken Dog
TTITLE6=Gus Cannon (Banjo Joe) - Poor Boy, Long Way From Home
TTITLE7=North Mississippi Allstars - Snake Drive
TTITLE8=Mud Boy And The Neutrons - Summer D Slum
TTITLE9=Elder Beck - Rock And Roll Sermon Part 1
TTITLE10=Elder Beck - Rock And Roll Sermon Part 2
TTITLE11=The Jesters - Cadillac Man
TTITLE12=Million Dollar Quartet - I Shall Not Be Moved
TTITLE13=Jessie Mae Hemphill - Go Back To Your Used To Be
TTITLE14=Eddie Floyd - Things Get Better
TTITLE15=Syl Johnson - Anyway The Wind Blows
TTITLE16=Ann Peebles - (I Feel Like) Breaking Up Somebody's Home
TTITLE17=Tav Falco's Panther Burns - Tina, The Go-Go Queen
TTITLE18=Sid Selvidge - The Outlaw
TTITLE19=Isaac Hayes - By The Time I Get To Phoenix
EXTD=
EXTT0=
EXTT1=
EXTT2=
EXTT3=
EXTT4=
EXTT5=
EXTT6=
EXTT7=
EXTT8=
EXTT9=
EXTT10=
EXTT11=
EXTT12=
EXTT13=
EXTT14=
EXTT15=
EXTT16=
EXTT17=
EXTT18=
EXTT19=
PLAYORDER=
